# xmcd
#
# Track frame offsets:
#	150
#	15752
#	26494
#	51499
#	82779
#	103413
#	121796
#	144896
#	160481
#	182227
#	203266
#	225512
#	254114
#	269103
#	284625
#	303100
#	324178
#
# Disc length: 4572 seconds
#
# Revision: 6
# Processed by: cddbd v1.5.2PL0 Copyright (c) Steve Scherf et al.
# Submitted via: EasyCDDAExtractor 12.0.1.1
#
DISCID=e311da11
DTITLE=Blondie - Livid
DYEAR=1999
DGENRE=Country
TTITLE0=Dreaming
TTITLE1=Hanging On The Telephone
TTITLE2=Screaming Skin
TTITLE3=Atomic
TTITLE4=Forgive And Forget
TTITLE5=The Tide Is High
TTITLE6=Shayla
TTITLE7=Sunday Girl
TTITLE8=Maria
TTITLE9=Call Me
TTITLE10=Under The Gun
TTITLE11=Rapture
TTITLE12=Rip Her To Shreds
TTITLE13=X Offender
TTITLE14=No Exit
TTITLE15=Heart Of Glass
TTITLE16=One Way Or Another
EXTD=YEAR: 1999 ID3G:  17
EXTT0=
EXTT1=
EXTT2=
EXTT3=
EXTT4=
EXTT5=
EXTT6=
EXTT7=
EXTT8=
EXTT9=
EXTT10=
EXTT11=
EXTT12=
EXTT13=
EXTT14=
EXTT15=
EXTT16=
PLAYORDER=
